<svg width="304" height="266" viewBox="0 0 304 266" fill="none" xmlns="http://www.w3.org/2000/svg">
<path fill-rule="evenodd" clip-rule="evenodd" d="M124.197 1.75C121.274 4.279 -0.00199998 215.786 2.47367e-08 218.35C0.00300002 220.942 23.289 261.766 26.182 264.25C28.099 265.896 35.588 266 152.654 266H277.089L279.301 263.75C280.517 262.512 286.62 252.383 292.863 241.241C302.236 224.512 304.142 220.416 303.798 217.741C303.288 213.774 184.013 5.483 180.401 2.25C177.931 0.04 177.432 0 152.053 0C128.887 0 126.011 0.181 124.197 1.75ZM145.165 16.77C145.348 17.194 165.635 53.811 190.248 98.141C214.861 142.471 234.998 179.663 234.998 180.789C234.998 184.182 233.902 185.998 230.926 187.537C228.575 188.753 221.006 189 186.125 189H144.153L138.482 199.573C135.363 205.388 133.006 210.341 133.244 210.579C133.482 210.818 167.278 210.897 208.345 210.756L283.013 210.5L227.255 113.262L171.498 16.025L158.165 16.012C150.831 16.006 144.981 16.347 145.165 16.77ZM73.596 119.493C42.401 173.749 17.018 218.485 17.188 218.907C19.018 223.434 30.612 241.786 31.242 241.156C31.701 240.697 52.897 204.137 78.344 159.911C113.797 98.295 125.23 79.2 127.259 78.217C130.688 76.556 136.462 78.736 137.528 82.094C137.925 83.347 149.219 103.858 162.624 127.674C176.03 151.49 186.998 171.431 186.998 171.988C186.998 172.621 192.072 173 200.54 173H214.082L211.649 168.75C202.918 153.499 132.489 26.02 131.516 23.704C130.352 20.936 128.519 23.966 73.596 119.493ZM87.498 175.138C64.398 215.34 45.345 248.638 45.159 249.134C44.961 249.658 55.189 249.923 69.623 249.768L94.427 249.5L113.15 214.085C123.448 194.607 133.035 177.507 134.455 176.085C136.974 173.563 137.438 173.488 153.461 173L169.885 172.5L150.192 137.276C139.36 117.903 130.273 102.05 129.998 102.048C129.723 102.046 110.598 134.937 87.498 175.138ZM124.216 227.25C123.651 227.938 120.63 233.34 117.503 239.256L111.818 250.012L191.027 249.756L270.235 249.5L276.218 239C279.508 233.225 282.428 227.938 282.706 227.25C283.108 226.256 267.018 226 204.227 226C142.254 226 125.022 226.269 124.216 227.25Z" fill="#F6F6F6"/>
</svg>
