<svg width="120" height="31" viewBox="0 0 120 31" fill="none" xmlns="http://www.w3.org/2000/svg">
<path fill-rule="evenodd" clip-rule="evenodd" d="M14.5543 0.203947C14.2118 0.49868 -0.000234372 25.148 2.89883e-09 25.4468C0.000351565 25.7489 2.72918 30.5066 3.0682 30.7961C3.29285 30.9879 4.17047 31 17.8891 31H32.4714L32.7306 30.7378C32.8731 30.5935 33.5883 29.4131 34.3199 28.1146C35.4183 26.1649 35.6416 25.6876 35.6013 25.3758C35.5416 24.9135 21.564 0.638996 21.1407 0.262218C20.8513 0.00466165 20.7928 0 17.8187 0C15.1039 0 14.7669 0.021094 14.5543 0.203947ZM17.0115 1.9544C17.033 2.00381 19.4104 6.27121 22.2947 11.4375C25.179 16.6038 27.5388 20.9382 27.5388 21.0694C27.5388 21.4648 27.4104 21.6765 27.0616 21.8558C26.7861 21.9975 25.8991 22.0263 21.8115 22.0263H16.8929L16.2284 23.2585C15.8629 23.9362 15.5866 24.5134 15.6145 24.5412C15.6424 24.569 19.6029 24.5782 24.4154 24.5618L33.1656 24.532L26.6314 13.1997L20.0974 1.86758L18.535 1.86606C17.6755 1.86536 16.99 1.9051 17.0115 1.9544ZM49.015 2.19284C48.9032 2.26347 45.443 11.4212 42.6995 18.9073C42.2258 20.2001 42.1444 20.1617 45.3527 20.1617C48.0152 20.1617 48.0428 20.1591 48.2014 19.8994C48.2897 19.7552 48.6731 18.7853 49.0537 17.7442L49.7459 15.8511L50.4274 15.8504C50.8022 15.85 51.2109 15.7953 51.3356 15.729C51.589 15.5942 51.6369 15.1547 51.4216 14.9406C51.2253 14.7454 49.1707 14.7504 49.0125 14.9464C48.9478 15.0266 48.5634 15.9967 48.1582 17.1024L47.4214 19.1128H45.6247C44.6365 19.1128 43.8265 19.0734 43.8248 19.0254C43.8173 18.8126 49.2843 4.2174 49.3444 4.28954C49.3814 4.33394 50.6407 7.70047 52.1428 11.7707C53.6449 15.8409 54.9696 19.3939 55.0864 19.6664L55.2991 20.1617H57.9776C60.7126 20.1617 60.9373 20.127 60.9373 19.7059C60.9373 19.4288 54.5996 2.40809 54.4295 2.22827C54.2286 2.01605 53.7089 2.14704 53.6176 2.43303C53.5748 2.56694 54.6996 5.75178 56.5293 10.6781C58.1688 15.0928 59.5475 18.798 59.593 18.9119C59.6703 19.1057 59.5576 19.1167 57.8229 19.0867L55.9702 19.0545L52.9008 10.7859C51.2127 6.23811 49.7722 2.42289 49.6998 2.30752C49.5619 2.08784 49.2611 2.03749 49.015 2.19284ZM76.8343 2.3109C76.6575 2.50517 76.6404 3.29171 76.6404 11.2179C76.6404 18.9662 76.6604 19.9318 76.8245 20.0951C76.9799 20.2495 77.3809 20.2782 79.3845 20.2782C81.5373 20.2782 81.7785 20.2582 81.9543 20.065C82.1311 19.8708 82.1482 19.0841 82.1482 11.1563V2.46054L81.8877 2.2792C81.6735 2.12991 81.2194 2.09774 79.3277 2.09774C77.2489 2.09774 77.0097 2.11814 76.8343 2.3109ZM61.3541 2.47336C61.0837 2.85701 61.0853 6.65684 61.3557 6.92594C61.5804 7.14923 61.9185 7.16275 62.0916 6.9553C62.1682 6.86335 62.2329 6.10222 62.2523 5.06151L62.2849 3.32143L63.4275 3.2881L64.5701 3.25477V11.5917C64.5701 19.7732 64.5744 19.9329 64.8045 20.1617C65.0231 20.3791 65.195 20.3947 67.3644 20.3947C69.4686 20.3947 69.7085 20.3745 69.8839 20.1816C70.0607 19.9874 70.0779 19.2242 70.0779 11.6116V3.25477L71.2205 3.2881L72.363 3.32143L72.3956 5.06151C72.4288 6.83562 72.4958 7.10902 72.8981 7.10902C73.3826 7.10902 73.4763 6.70812 73.4763 4.63567C73.4763 2.8358 73.4577 2.66192 73.242 2.44737C73.0139 2.22058 72.8514 2.21429 67.2721 2.21429H61.5364L61.3541 2.47336ZM84.7897 2.44201C84.6141 2.63512 84.6029 2.72835 84.7165 3.05385C85.6612 5.76274 91.0219 20.0394 91.1511 20.1908C91.307 20.3734 91.5905 20.3947 93.8627 20.3947C95.7182 20.3947 96.4489 20.3556 96.5812 20.2491C96.7781 20.0904 103.125 3.0521 103.125 2.68197C103.125 2.27279 102.754 2.21429 100.162 2.21429C97.9177 2.21429 97.6348 2.23573 97.4781 2.41823C97.3818 2.53035 96.0237 6.08346 94.4603 10.3139C92.8968 14.5444 91.5788 18.0467 91.5314 18.0969C91.4489 18.1842 86.0154 3.71266 86.0154 3.4058C86.0154 3.29031 86.4149 3.26432 87.8025 3.28926L89.5896 3.32143L90.3275 5.24436C92.0092 9.62655 92.1233 9.89483 92.3347 9.96149C92.6271 10.0538 92.9073 9.92583 92.9918 9.66128C93.0773 9.39312 90.5194 2.57801 90.2513 2.35996C90.1202 2.25344 89.391 2.21429 87.5346 2.21429C85.1655 2.21429 84.9832 2.22944 84.7897 2.44201ZM108.026 2.35996C107.846 2.50308 101.484 19.5192 101.484 19.8561C101.484 19.9508 101.567 20.1108 101.668 20.2117C101.941 20.4826 106.694 20.4841 107.083 20.2133C107.226 20.1135 107.344 19.9849 107.344 19.9274C107.344 19.8701 107.665 18.9552 108.059 17.8946L108.774 15.9662H109.472C109.857 15.9662 110.273 15.9119 110.398 15.8455C110.651 15.7107 110.699 15.2712 110.484 15.0571C110.28 14.8538 108.234 14.8678 108.062 15.0738C107.99 15.1598 107.717 15.8023 107.456 16.5014C107.194 17.2006 106.847 18.1265 106.683 18.5592L106.386 19.3459H104.579C103.586 19.3459 102.773 19.322 102.773 19.2927C102.773 19.2496 107.702 5.92321 108.159 4.73286C108.23 4.54779 108.315 4.42333 108.348 4.45631C108.381 4.48941 109.719 8.04333 111.321 12.3541C112.923 16.6647 114.305 20.2366 114.392 20.2914C114.479 20.3463 115.665 20.3919 117.028 20.393C119.293 20.3946 119.529 20.3757 119.782 20.172L120.058 19.9494L119.848 19.3854C119.732 19.0753 118.287 15.1766 116.636 10.7218C114.986 6.26701 113.556 2.53046 113.459 2.41823C113.302 2.23561 113.018 2.21429 110.746 2.21429C108.892 2.21429 108.159 2.25344 108.026 2.35996ZM8.62453 13.9259C4.96887 20.2489 1.9943 25.4625 2.01422 25.5117C2.22867 26.0393 3.58734 28.1781 3.66117 28.1046C3.71496 28.0512 6.19887 23.7904 9.18094 18.6362C13.3356 11.4554 14.6754 9.23008 14.9132 9.11552C15.315 8.92194 15.9916 9.176 16.1166 9.56735C16.1631 9.71337 17.4866 12.1038 19.0575 14.8793C20.6285 17.6549 21.9138 19.9788 21.9138 20.0437C21.9138 20.1175 22.5084 20.1617 23.5008 20.1617H25.0877L24.8026 19.6664C23.7795 17.889 15.5261 3.03241 15.412 2.7625C15.2756 2.43991 15.0608 2.79303 8.62453 13.9259ZM77.7764 3.2212C77.7316 3.26561 77.6951 6.88561 77.6951 11.2657V19.2293H79.3951H81.0952L81.065 11.2171L81.0349 3.20489L79.4463 3.17261C78.5726 3.15489 77.8211 3.17668 77.7764 3.2212ZM65.6787 3.40883C65.6479 3.48902 65.6364 7.09446 65.653 11.4211L65.6834 19.2876H67.324H68.9646L68.9947 11.2754L69.0248 3.26316H67.3798C66.1716 3.26316 65.7197 3.30185 65.6787 3.40883ZM98.1429 3.40883C98.1139 3.48902 96.7973 7.04201 95.2171 11.3045C93.6368 15.567 92.3438 19.1201 92.3438 19.2002C92.3435 19.3103 92.7743 19.3459 94.1073 19.3459H95.8711L96.0292 18.9671C96.2386 18.4654 101.836 3.37492 101.836 3.31199C101.836 3.28518 101.017 3.26316 100.016 3.26316C98.6658 3.26316 98.1819 3.3008 98.1429 3.40883ZM109.151 3.46408C109.189 3.57794 110.524 7.18477 112.119 11.4793L115.02 19.2876L116.807 19.3198C118.241 19.3456 118.594 19.321 118.594 19.1952C118.594 19.1091 117.281 15.5021 115.676 11.1799L112.758 3.32143L110.921 3.28926C109.206 3.25931 109.088 3.27085 109.151 3.46408ZM10.2537 20.4108C7.54664 25.096 5.31387 28.9766 5.29207 29.0344C5.26887 29.0955 6.46746 29.1264 8.15895 29.1083L11.0657 29.0771L13.2598 24.9498C14.4666 22.6798 15.59 20.6869 15.7564 20.5212C16.0516 20.2273 16.106 20.2185 17.9837 20.1617L19.9084 20.1034L17.6006 15.9983C16.3312 13.7406 15.2664 11.893 15.2341 11.8928C15.2019 11.8926 12.9607 15.7257 10.2537 20.4108ZM72.665 22.7166C72.5312 22.8497 72.4216 23.0111 72.4216 23.0752C72.4216 23.2344 72.8602 23.2235 72.9141 23.063C72.9449 22.9708 73.0973 22.976 73.4508 23.0814C73.8899 23.2121 73.9704 23.2051 74.1791 23.0172C74.3082 22.9011 74.4138 22.7355 74.4138 22.6492C74.4138 22.4608 74.1087 22.44 73.9964 22.6208C73.9202 22.7432 73.5252 22.7118 73.1045 22.5499C72.9837 22.5033 72.8153 22.5672 72.665 22.7166ZM92.1207 22.907C91.8146 23.4229 91.8148 23.4248 92.1538 23.4248C92.334 23.4248 92.5417 23.283 92.7397 23.0247C93.1246 22.5229 93.1227 22.4925 92.7067 22.4925C92.4412 22.4925 92.3127 22.5835 92.1207 22.907ZM55.5203 23.8328C55.1204 24.0571 54.9607 24.3479 54.9607 24.852C54.9607 25.2557 55.0638 25.4025 55.822 26.0789C56.5247 26.7058 56.3139 27.0868 55.3016 27.0195C54.7612 26.9836 54.6866 27.0075 54.597 27.2453C54.513 27.468 54.5453 27.5296 54.7949 27.624C55.5134 27.8957 56.5655 27.6564 56.8322 27.1605C57.1205 26.625 56.9823 26.1998 56.2962 25.5103C55.7914 25.003 55.6568 24.7959 55.7145 24.6153C55.8071 24.3246 56.2502 24.2023 56.6552 24.3554C56.9254 24.4575 56.9732 24.4358 57.0769 24.1646C57.1412 23.9963 57.1659 23.831 57.1318 23.7969C56.9727 23.6388 55.8207 23.6644 55.5203 23.8328ZM58.7469 23.8287C57.9122 24.1898 57.2645 25.6969 57.534 26.6509C57.7501 27.4153 58.146 27.7368 58.8711 27.7368C60.1164 27.7368 61.0545 26.6236 61.0545 25.146C61.0545 23.9526 59.9362 23.3143 58.7469 23.8287ZM69.4334 23.823C68.6336 24.1781 68.0857 25.1066 68.0857 26.1074C68.0857 26.8268 68.3253 27.3237 68.7868 27.561C68.9977 27.6695 69.1079 27.8019 69.0697 27.9008C69.0354 27.99 69.0661 28.0991 69.138 28.1433C69.3026 28.2444 69.0729 28.5526 68.8331 28.5526C68.7443 28.5526 68.6716 28.6313 68.6716 28.7274C68.6716 28.9792 69.2937 28.9514 69.5324 28.6891C69.81 28.384 69.7786 27.9817 69.4682 27.8675C69.2582 27.7902 69.317 27.7605 69.7833 27.7082C70.3527 27.6444 70.6638 27.4153 70.6638 27.06C70.6638 26.9427 70.5863 26.9164 70.4002 26.9702C69.6062 27.2003 69.3963 27.1862 69.0903 26.8819C68.3094 26.1053 69.2632 24.0918 70.3196 24.2871C70.4848 24.3176 70.6944 24.359 70.7856 24.3791C71.0044 24.4271 71.0856 23.8904 70.8791 23.7602C70.643 23.6114 69.8307 23.6467 69.4334 23.823ZM72.6701 23.8572C71.8087 24.2792 71.2132 25.6872 71.4797 26.6715C71.8077 27.883 73.2363 28.1132 74.2705 27.121C74.9166 26.5014 75.1998 25.0798 74.822 24.3533C74.478 23.6919 73.4781 23.4614 72.6701 23.8572ZM79.6155 23.7721C79.4795 23.8268 79.2505 24.0201 79.1069 24.2017C78.6905 24.7283 78.8386 25.2191 79.6349 25.9506C80.2304 26.4975 80.2784 26.5771 80.1527 26.8106C80.0277 27.0428 79.9485 27.0618 79.3339 27.0064C78.7111 26.9502 78.6479 26.9662 78.5863 27.1953C78.4934 27.5408 78.7982 27.7368 79.4283 27.7368C80.4448 27.7368 81.1125 27.127 80.9222 26.3726C80.8778 26.1966 80.5818 25.8153 80.2643 25.5251C79.6055 24.9227 79.511 24.5345 79.9802 24.3571C80.1687 24.2858 80.3835 24.288 80.5825 24.3633C80.9434 24.4998 80.9346 24.5047 81.0341 24.1105C81.0977 23.8582 81.0643 23.7938 80.8385 23.7336C80.4669 23.6347 79.9144 23.6521 79.6155 23.7721ZM84.5687 23.8216C83.6265 24.1688 83.0926 25.0036 83.0883 26.1361C83.0859 26.7359 83.1273 26.8531 83.4738 27.2291C83.8008 27.5839 83.958 27.6595 84.472 27.7086C84.8843 27.748 85.2489 27.7036 85.5963 27.5716C86.1028 27.3793 86.1123 27.3655 86.2386 26.6438C86.439 25.4998 86.448 25.5226 85.7935 25.5226C85.3788 25.5226 85.2005 25.5736 85.149 25.7069C85.0302 26.0149 85.0672 26.1053 85.3123 26.1053C85.4903 26.1053 85.5462 26.1824 85.5449 26.4258C85.5424 26.8538 85.4316 27.0033 85.0452 27.0998C84.3728 27.2676 83.7853 26.7581 83.7914 26.0124C83.7952 25.5501 84.1941 24.7536 84.5319 24.5334C84.8592 24.3201 85.4445 24.2581 85.9141 24.3867C86.1715 24.4574 86.2344 24.4282 86.2911 24.2124C86.3286 24.0699 86.3114 23.9057 86.2528 23.8474C86.0686 23.6642 85.0386 23.6485 84.5687 23.8216ZM87.6395 23.7298C87.4983 23.7715 87.3933 24.0874 87.2448 24.9168C87.1336 25.5384 86.975 26.4047 86.8925 26.8419C86.7326 27.6899 86.7836 27.8089 87.2671 27.7162C87.4271 27.6856 87.5129 27.483 87.6241 26.8725C87.7047 26.4305 87.7952 26.0444 87.8255 26.0145C87.9852 25.8556 88.286 26.1849 88.6242 26.8888C88.9949 27.6603 89.2119 27.8388 89.5992 27.691C89.738 27.6381 89.6889 27.4633 89.3441 26.7826C89.0222 26.1468 88.9564 25.9267 89.0766 25.8869C89.1641 25.8578 89.3844 25.6863 89.5661 25.5057C90.0143 25.0599 89.9843 24.3242 89.5032 23.9685C89.1885 23.7356 88.0939 23.5954 87.6395 23.7298ZM91.1261 25.5011C89.7561 27.7669 89.7691 27.7368 90.1619 27.7368C90.3809 27.7368 90.5407 27.6227 90.7311 27.3303C90.9859 26.9392 91.0229 26.9238 91.7153 26.9225L92.4346 26.9211L92.5116 27.3289C92.5788 27.6858 92.6318 27.7368 92.9347 27.7368C93.1366 27.7368 93.2787 27.6761 93.2754 27.5912C93.2556 27.072 92.4874 23.725 92.38 23.6894C92.3073 23.6654 91.743 24.4806 91.1261 25.5011ZM99.8842 23.8976C98.6537 24.5034 98.1785 26.5433 99.0731 27.3792C99.6668 27.9338 101.133 27.7962 101.133 27.1858C101.133 26.9568 101.09 26.913 100.927 26.9768C100.014 27.3361 99.3748 27.001 99.3748 26.1627C99.3748 24.915 100.271 24.0093 101.169 24.3489C101.451 24.4552 101.489 24.4371 101.557 24.1664C101.607 23.9687 101.578 23.831 101.471 23.7637C101.184 23.5834 100.386 23.6509 99.8842 23.8976ZM102.713 25.5976C102.069 26.6651 101.525 27.5831 101.504 27.6377C101.482 27.6922 101.622 27.7368 101.814 27.7368C102.09 27.7368 102.216 27.6503 102.406 27.3289C102.64 26.9348 102.672 26.9211 103.352 26.9211C104.048 26.9211 104.057 26.9254 104.154 27.2998C104.23 27.5937 104.322 27.6868 104.567 27.7154C104.83 27.7462 104.882 27.7076 104.879 27.4823C104.872 26.9777 104.121 23.7353 104.002 23.696C103.937 23.6744 103.357 24.5302 102.713 25.5976ZM106.262 23.8396C105.857 24.0581 105.703 24.3467 105.703 24.8839C105.703 25.2517 105.794 25.3944 106.377 25.9353C106.951 26.4684 107.031 26.5923 106.919 26.7702C106.818 26.9315 106.633 26.98 106.112 26.9821C105.517 26.9846 105.423 27.0171 105.337 27.2482C105.255 27.4669 105.289 27.5303 105.537 27.624C106.256 27.8957 107.308 27.6564 107.574 27.1605C107.86 26.6306 107.724 26.2147 107.051 25.5557C106.696 25.2087 106.406 24.822 106.406 24.6964C106.406 24.385 106.926 24.1948 107.363 24.3463C107.662 24.4503 107.701 24.433 107.769 24.1636C107.818 23.9688 107.788 23.8306 107.682 23.7637C107.43 23.605 106.617 23.6485 106.262 23.8396ZM61.938 23.9201C61.8697 24.1339 61.2884 27.4201 61.2886 27.5912C61.2888 27.6984 61.6104 27.7368 62.5056 27.7368C63.6684 27.7368 63.7255 27.7252 63.7931 27.4746C63.8319 27.3303 63.8645 27.173 63.8653 27.125C63.8663 27.077 63.4714 27.0376 62.988 27.0376C62.5046 27.0376 62.1091 26.9878 62.1091 26.927C62.1091 26.8183 62.5266 24.5505 62.6411 24.0367C62.6918 23.8093 62.6519 23.7744 62.3421 23.7744C62.1455 23.7744 61.9636 23.84 61.938 23.9201ZM64.8633 24.0367C64.8287 24.1809 64.6964 24.8698 64.5693 25.5675C64.3788 26.6129 64.3637 26.8891 64.4834 27.1374C64.7605 27.712 65.6824 27.9108 66.4983 27.5718C67.1812 27.288 67.2684 27.0597 67.783 24.2115C67.8598 23.7867 67.8521 23.7744 67.513 23.7744C67.1095 23.7744 67.1244 23.7392 66.8508 25.3477C66.7417 25.9887 66.5812 26.6266 66.4942 26.7652C66.3018 27.0717 65.7264 27.2165 65.3973 27.0412C65.093 26.8793 65.092 26.6136 65.3904 25.0564C65.5193 24.3836 65.6248 23.82 65.6248 23.8038C65.6248 23.7876 65.4676 23.7744 65.2754 23.7744C65.0099 23.7744 64.911 23.8374 64.8633 24.0367ZM75.8807 23.9201C75.8024 24.1513 75.2341 27.3412 75.2341 27.5491C75.2341 27.827 77.6339 27.8303 77.7411 27.5525C77.9208 27.087 77.8423 27.0376 76.923 27.0376H76.0338L76.1162 26.5423C76.1616 26.2698 76.222 26.0076 76.2506 25.9596C76.2792 25.9116 76.5834 25.8722 76.9266 25.8722C77.4991 25.8722 77.5552 25.8482 77.6066 25.5808C77.6606 25.2994 77.6413 25.2895 77.0343 25.2895C76.3645 25.2895 76.3153 25.23 76.4798 24.6194C76.5456 24.3756 76.6154 24.3571 77.4744 24.3571C78.3817 24.3571 78.3982 24.3519 78.3982 24.0658V23.7744H77.1641C76.2812 23.7744 75.9159 23.8159 75.8807 23.9201ZM94.2777 24.0367C94.1679 24.4982 93.6348 27.44 93.6338 27.5912C93.6323 27.7646 94.1728 27.7881 94.2778 27.6193C94.318 27.5545 94.4163 27.1481 94.4962 26.7161L94.6416 25.9305L95.3549 25.8961C96.007 25.8646 96.0729 25.8372 96.1232 25.5756C96.1765 25.2981 96.1575 25.2895 95.4913 25.2895C94.7576 25.2895 94.7113 25.239 94.8783 24.6194C94.9445 24.3739 95.0116 24.3571 95.9314 24.3571C96.9012 24.3571 96.9138 24.3534 96.9138 24.0658V23.7744H95.627C94.3891 23.7744 94.3378 23.7845 94.2777 24.0367ZM97.4412 24.9107C97.3294 25.5357 97.1715 26.3987 97.0904 26.8288C97.0093 27.2587 96.9716 27.6388 97.0065 27.6737C97.0414 27.7084 97.1921 27.7368 97.3413 27.7368C97.5259 27.7368 97.6324 27.6532 97.675 27.4746C97.7848 27.0131 98.3178 24.0713 98.3189 23.9201C98.3196 23.837 98.175 23.7744 97.9823 23.7744C97.6472 23.7744 97.6431 23.7831 97.4412 24.9107ZM58.9921 24.4617C58.2927 24.8859 57.9787 26.4262 58.4885 26.9332C58.6763 27.1199 58.8212 27.1612 59.0961 27.1066C59.8123 26.9642 60.2558 26.2921 60.2783 25.3151C60.2905 24.7858 60.2491 24.6518 60.0161 24.4638C59.6691 24.1838 59.451 24.1835 58.9921 24.4617ZM72.9374 24.4617C72.238 24.8859 71.9241 26.4262 72.4338 26.9332C72.6216 27.1199 72.7665 27.1612 73.0414 27.1066C73.7576 26.9642 74.2011 26.2921 74.2236 25.3151C74.2358 24.7858 74.1945 24.6518 73.9614 24.4638C73.6144 24.1838 73.3963 24.1835 72.9374 24.4617ZM88.0884 24.4445C88.0609 24.4926 88.0027 24.7287 87.9591 24.969L87.8797 25.406H88.3454C89.0311 25.406 89.4287 24.8847 89.0388 24.497C88.8848 24.3439 88.1688 24.3043 88.0884 24.4445ZM91.7283 25.6272C91.551 25.9411 91.406 26.2295 91.406 26.2681C91.406 26.3068 91.6235 26.3383 91.8894 26.3383C92.3684 26.3383 92.3721 26.335 92.2996 25.9742C92.2593 25.7738 92.2263 25.4854 92.2263 25.3332C92.2263 24.9136 92.0838 24.9978 91.7283 25.6272ZM103.635 25.1866C103.563 25.2753 103.392 25.5706 103.254 25.843L103.003 26.3383H103.474C103.93 26.3383 103.945 26.326 103.933 25.9596C103.927 25.7513 103.886 25.4559 103.843 25.3031C103.78 25.0769 103.741 25.0553 103.635 25.1866ZM14.5566 26.484C14.4904 26.5642 14.1363 27.1938 13.7699 27.8832L13.1037 29.1367L22.386 29.1069L31.6682 29.0771L32.3693 27.8534C32.7548 27.1804 33.097 26.5642 33.1296 26.484C33.1767 26.3682 31.2912 26.3383 23.9329 26.3383C16.6704 26.3383 14.651 26.3697 14.5566 26.484Z" fill="white"/>
</svg>
